<svg id="visual" viewBox="0 0 960 540" width="960" height="540" xmlns="http://www.w3.org/2000/svg" xmlns:xlink="http://www.w3.org/1999/xlink" version="1.1"><rect x="0" y="0" width="960" height="540" fill="#53351f"></rect><g transform="translate(458.04273557147826 252.7210598305041)"><path d="M66.3 -96.7C92 -86.8 122.8 -78.5 146.1 -57.8C169.3 -37.2 184.9 -4.2 176.5 22.5C168.1 49.1 135.8 69.4 106 76.8C76.2 84.1 48.8 78.5 22.4 94.7C-4 110.9 -29.5 149 -57.5 158.1C-85.5 167.1 -116.1 147.1 -128.2 118.9C-140.3 90.8 -134 54.6 -124.9 26.4C-115.7 -1.7 -103.8 -21.9 -95.9 -45.7C-87.9 -69.5 -84 -97 -68.7 -111.7C-53.3 -126.3 -26.7 -128.2 -3.2 -123.3C20.4 -118.4 40.7 -106.7 66.3 -96.7" fill="#a64237"></path></g></svg>