<svg id="visual" viewBox="0 0 960 540" width="960" height="540" xmlns="http://www.w3.org/2000/svg" xmlns:xlink="http://www.w3.org/1999/xlink" version="1.1"><rect x="0" y="0" width="960" height="540" fill="#53351f"></rect><g transform="translate(511.13105992806857 254.4306415376586)"><path d="M57.4 -85.9C83.5 -72.6 120 -72 124.7 -58C129.4 -44 102.3 -16.6 86.1 3.9C70 24.5 64.9 38.1 61.4 67.2C57.9 96.2 56.2 140.7 40.4 151.9C24.6 163.1 -5.2 141 -37.5 130.4C-69.9 119.7 -104.9 120.4 -132.4 105.4C-160 90.4 -180.2 59.6 -185.9 26.2C-191.5 -7.2 -182.6 -43.3 -156.3 -59C-129.9 -74.8 -86 -70.2 -57.1 -82.1C-28.1 -94.1 -14.1 -122.5 0.8 -123.8C15.7 -125.1 31.4 -99.1 57.4 -85.9" fill="#a64237"></path></g></svg>