<svg id="visual" viewBox="0 0 960 540" width="960" height="540" xmlns="http://www.w3.org/2000/svg" xmlns:xlink="http://www.w3.org/1999/xlink" version="1.1"><rect x="0" y="0" width="960" height="540" fill="#53351f"></rect><g transform="translate(459.28279647468815 277.3384275911604)"><path d="M66.7 -103C97 -84.3 139.5 -83.7 150.8 -66.6C162.2 -49.5 142.5 -15.9 136 18.5C129.4 53 136.1 88.4 125.2 117.8C114.2 147.3 85.6 170.8 58.3 162.3C30.9 153.8 4.8 113.3 -26.9 100.2C-58.6 87 -95.8 101.1 -107.9 91.2C-120 81.3 -107 47.4 -99.7 21.4C-92.4 -4.6 -90.8 -22.6 -93.1 -52.9C-95.5 -83.2 -101.8 -125.7 -86.9 -151.5C-72.1 -177.2 -36 -186.1 -8.9 -172.2C18.2 -158.3 36.4 -121.6 66.7 -103" fill="#a64237"></path></g></svg>