<svg id="visual" viewBox="0 0 960 540" width="960" height="540" xmlns="http://www.w3.org/2000/svg" xmlns:xlink="http://www.w3.org/1999/xlink" version="1.1"><rect x="0" y="0" width="960" height="540" fill="#53351f"></rect><g transform="translate(492.961665130851 286.3053215674047)"><path d="M78.6 -135.9C90.1 -114.8 79.6 -73.2 86.6 -43.7C93.6 -14.2 118.1 3.1 127.3 26.4C136.6 49.7 130.6 78.9 112.4 94.2C94.1 109.5 63.5 110.9 35.6 117.3C7.6 123.8 -17.7 135.3 -34.5 126.3C-51.2 117.3 -59.2 87.8 -77.3 67C-95.3 46.1 -123.4 33.9 -139.9 11.6C-156.4 -10.8 -161.5 -43.4 -154.5 -75.4C-147.5 -107.5 -128.5 -138.9 -100.7 -152.6C-73 -166.2 -36.5 -162.1 -1.5 -159.8C33.5 -157.5 67 -157 78.6 -135.9" fill="#a64237"></path></g></svg>