<svg id="visual" viewBox="0 0 900 600" width="900" height="600" xmlns="http://www.w3.org/2000/svg" xmlns:xlink="http://www.w3.org/1999/xlink" version="1.1"><rect x="0" y="0" width="900" height="600" fill="#53351f"></rect><g transform="translate(452.57029287319244 281.5965177588928)"><path d="M88.7 -116.8C120.9 -117.4 156.9 -102.7 157.9 -78.5C158.9 -54.3 125 -20.6 115.6 13.8C106.3 48.2 121.5 83.4 114.7 109.7C107.9 135.9 79 153.4 46.5 166.9C13.9 180.4 -22.4 190 -56.8 184.1C-91.2 178.2 -123.8 156.9 -142.9 127.8C-162 98.7 -167.6 61.8 -159.4 31C-151.3 0.3 -129.3 -24.4 -120.7 -60.1C-112.1 -95.8 -116.9 -142.5 -99 -148.4C-81.1 -154.3 -40.5 -119.4 -6.1 -109.8C28.3 -100.3 56.6 -116.2 88.7 -116.8" fill="#a64237"></path></g></svg>