<svg id="visual" viewBox="0 0 960 540" width="960" height="540" xmlns="http://www.w3.org/2000/svg" xmlns:xlink="http://www.w3.org/1999/xlink" version="1.1"><rect x="0" y="0" width="960" height="540" fill="#53351f"></rect><g transform="translate(481.4605193973035 245.87330027238085)"><path d="M68.1 -98.9C86.2 -94.4 97.2 -71.9 117.2 -47.8C137.2 -23.6 166.1 2.2 171.1 30.4C176.1 58.6 157.2 89.2 133 112.7C108.7 136.2 79.2 152.5 51.9 146.9C24.6 141.4 -0.4 113.9 -22.7 97.9C-45.1 82 -64.9 77.7 -94.1 68.1C-123.2 58.5 -161.8 43.7 -172 20.4C-182.1 -2.9 -163.8 -34.7 -138.5 -52C-113.1 -69.3 -80.6 -72.1 -56.3 -73.7C-32.1 -75.2 -16 -75.6 4.5 -82.6C25 -89.6 50.1 -103.3 68.1 -98.9" fill="#a64237"></path></g></svg>